<?xml version="1.0" encoding="utf-8"?>
<!-- Generator: Adobe Illustrator 22.0.1, SVG Export Plug-In . SVG Version: 6.00 Build 0)  -->
<svg version="1.1" xmlns="http://www.w3.org/2000/svg" xmlns:xlink="http://www.w3.org/1999/xlink" x="0px" y="0px"
	 viewBox="0 0 1851.8 802.9" style="enable-background:new 0 0 1851.8 802.9;" xml:space="preserve">
<style type="text/css">
	.st0{opacity:0.85;}
	.st1{fill:#74AAE1;}
	.st2{fill:#35597A;}
	.st3{fill:#D0E3ED;}
	.st4{fill:#B5D6ED;}
	.st5{fill:#4F70BC;}
	.st6{fill:#6887C0;}
	.st7{fill:#96C6E2;}
	.st8{fill:#EAF7FB;}
	.st9{fill:#F2FCFF;}
	.st10{fill:#FFFFFF;}
	.st11{fill:#DEF0FF;}
	.st12{fill:#B9D9E8;}
	.st13{fill:#3D5070;}
	.st14{fill:#EDF4F9;}
	.st15{fill:#3E629B;}
	.st16{opacity:0.12;fill:#4F70BC;}
</style>
<g id="Layer_1">
	<g class="st0">
		<g id="XMLID_1_">
			<g>
				<polygon class="st1" points="1871.5,179.8 1869.3,307.6 1821.3,251.9 1821.2,251.8 1791.3,215.2 1813,205.2 1813.2,205.1 				
					"/>
				<polygon class="st2" points="1869.9,-122.3 1870.9,87.1 1839,-37.5 				"/>
				<polygon class="st2" points="1839,-37.5 1870.9,87.1 1869.9,135 1863.9,129 				"/>
				<polygon class="st3" points="1869.3,307.6 1870.9,309.4 1869.3,309.6 				"/>
				<polygon class="st3" points="1870.9,309.4 1866.9,454 1784.2,410.1 				"/>
				<polygon class="st4" points="1870.9,309.4 1784.2,410.1 1748.3,318.4 1868.6,309.6 1868.6,309.6 1869.3,310.4 1869.3,309.6 				
					"/>
				<polygon class="st5" points="1869.9,135 1869.9,178.8 1813.2,205.1 1813,205.2 1791.1,214.6 1863.9,129 				"/>
				<polygon class="st2" points="1869.9,-122.3 1839,-37.5 1847,-126.2 				"/>
				<polygon class="st1" points="1869.3,307.6 1869.3,307.6 1869.3,309.6 1868.6,309.6 1868.6,309.6 1821.3,251.9 				"/>
				<polygon class="st1" points="1869.3,309.6 1869.3,310.4 1868.6,309.6 				"/>
				<polygon class="st3" points="1821.3,251.9 1868.6,309.6 1748.3,318.4 1790.2,215.7 1821.2,251.8 				"/>
				<polygon class="st2" points="1867.4,900.1 1868.4,947 1823,944.5 1820.6,901.1 				"/>
				<polygon class="st2" points="1867.9,843.8 1867.9,899.6 1820.1,900.6 1849,812.9 				"/>
				<polygon class="st2" points="1867.9,788 1867.9,843.8 1849,812.9 1836,692.3 				"/>
				<polygon class="st6" points="1867.9,560.7 1867.9,788 1836,692.3 				"/>
				<polygon class="st7" points="1862.9,507.8 1867.9,560.7 1836,692.3 				"/>
				<polygon class="st8" points="1866.9,454 1862.9,507.8 1784.2,410.1 				"/>
				<polygon class="st5" points="1839,-37.5 1863.9,129 1783.2,0.4 				"/>
				<polygon class="st6" points="1783.2,0.4 1863.9,129 1778.2,120 				"/>
				<polygon class="st1" points="1863.9,129 1791.1,214.6 1791.1,214.7 1790.9,214.7 1790.9,214.8 1790.2,215.7 1778.2,120 				"/>
				<polygon class="st3" points="1784.2,410.1 1862.9,507.8 1776.2,515.8 				"/>
				<polygon class="st1" points="1862.9,507.8 1836,692.3 1781.2,651.4 				"/>
				<polygon class="st4" points="1862.9,507.8 1781.2,651.4 1776.2,515.8 				"/>
				<polygon class="st1" points="1836,692.3 1849,812.9 1781.2,749.1 				"/>
				<polygon class="st2" points="1849,812.9 1820.1,900.6 1708.4,826.9 				"/>
				<polygon class="st6" points="1849,812.9 1708.4,826.9 1781.2,749.1 				"/>
				<polygon class="st2" points="1847,-126.2 1839,-37.5 1781.2,-89.4 1781.2,-89.4 1781.3,-89.3 1792.2,-98.2 1827,-126.2 				"/>
				<polygon class="st6" points="1839,-37.5 1783.2,0.4 1781.2,-89.4 				"/>
				<polygon class="st7" points="1836,692.3 1781.2,749.1 1781.2,651.4 				"/>
				<polygon class="st2" points="1826.9,-126.5 1792.2,-98.2 1781.2,-89.4 1775.2,-95.2 1772.8,-97.6 1743.5,-126 				"/>
				<polygon class="st2" points="1820.1,900.6 1823,944.5 1759.3,946.5 1717.4,892.7 				"/>
				<polygon class="st6" points="1820.1,900.6 1717.4,892.7 1708.4,826.9 				"/>
				<polygon class="st5" points="1813,205.2 1791.3,215.2 1791.3,215.2 1790.9,214.8 1791.1,214.7 1791.1,214.6 				"/>
				<polygon class="st2" points="1792.2,-98.2 1781.3,-89.3 1781.2,-89.4 				"/>
				<polygon class="st5" points="1790.9,214.8 1791.3,215.2 1790.2,215.7 				"/>
				<polygon class="st1" points="1791.1,214.7 1790.9,214.8 1790.9,214.7 				"/>
				<polygon class="st3" points="1778.2,120 1790.2,215.7 1678.5,225.7 				"/>
				<polygon class="st4" points="1790.2,215.7 1748.3,318.4 1678.5,225.7 				"/>
				<polygon class="st3" points="1748.3,318.4 1784.2,410.1 1677.5,402.2 1713.4,341.3 				"/>
				<polygon class="st8" points="1784.2,410.1 1776.2,515.8 1677.5,402.2 				"/>
				<polygon class="st2" points="1781.2,-89.4 1783.2,0.4 1657.6,26.3 				"/>
				<polygon class="st1" points="1783.2,0.4 1778.2,120 1699.4,82.1 				"/>
				<polygon class="st5" points="1783.2,0.4 1699.4,82.1 1657.6,26.3 				"/>
				<polygon class="st7" points="1781.2,651.4 1781.2,749.1 1657.6,622.5 				"/>
				<polygon class="st3" points="1776.2,515.8 1781.2,651.4 1697.5,558.7 				"/>
				<polygon class="st4" points="1697.5,558.7 1781.2,651.4 1657.6,622.5 				"/>
				<polygon class="st1" points="1657.6,622.5 1781.2,749.1 1708.4,826.9 				"/>
				<polygon class="st5" points="1781.2,-89.4 1657.6,26.3 1704.4,-126.2 1743.3,-126.2 1743.5,-126 1743.2,-126 1772.8,-97.6 
					1775.2,-95.2 				"/>
				<polygon class="st7" points="1778.2,120 1678.5,225.7 1699.4,82.1 				"/>
				<polygon class="st3" points="1677.5,402.2 1776.2,515.8 1697.5,558.7 				"/>
				<polygon class="st5" points="1743.5,-126 1772.8,-97.6 1743.2,-126 1743.5,-126 				"/>
				<polygon class="st2" points="1717.4,892.7 1759.3,946.5 1711.4,946.5 				"/>
				<polygon class="st4" points="1678.5,225.7 1748.3,318.4 1622.7,317.4 				"/>
				<polygon class="st3" points="1748.3,318.4 1713.4,341.3 1622.7,317.4 				"/>
				<polygon class="st5" points="1708.4,826.9 1717.4,892.7 1617.7,804.9 				"/>
				<polygon class="st5" points="1717.4,892.7 1711.4,946.5 1637.6,946.5 1569.9,883.7 				"/>
				<polygon class="st2" points="1717.4,892.7 1569.9,883.7 1617.7,804.9 				"/>
				<polygon class="st8" points="1713.4,341.3 1677.5,402.2 1622.7,317.4 				"/>
				<polygon class="st6" points="1657.6,622.5 1708.4,826.9 1617.7,804.9 				"/>
				<polygon class="st2" points="1704.4,-126.2 1657.6,26.3 1624.7,-126.2 				"/>
				<polygon class="st7" points="1657.6,26.3 1699.4,82.1 1592.8,107 				"/>
				<polygon class="st1" points="1699.4,82.1 1678.5,225.7 1592.8,107 				"/>
				<polygon class="st8" points="1677.5,402.2 1697.5,558.7 1589.8,531.8 1552.9,477.9 				"/>
				<polygon class="st3" points="1697.5,558.7 1657.6,622.5 1589.8,531.8 				"/>
				<polygon class="st4" points="1592.8,107 1678.5,225.7 1553.9,156.9 				"/>
				<polygon class="st3" points="1678.5,225.7 1622.7,317.4 1553.9,156.9 				"/>
				<polygon class="st4" points="1622.7,317.4 1677.5,402.2 1552.9,477.9 				"/>
				<polygon class="st5" points="1624.7,-126.2 1657.6,26.3 1531,-88.4 1596.8,-127.2 				"/>
				<polygon class="st1" points="1657.6,26.3 1592.8,107 1531,49.2 1554.9,23.3 				"/>
				<polygon class="st4" points="1589.8,531.8 1657.6,622.5 1552.9,625.5 1528,596.6 				"/>
				<polygon class="st1" points="1657.6,622.5 1617.7,804.9 1527,749.1 				"/>
				<polygon class="st6" points="1657.6,26.3 1554.9,23.3 1531,-88.4 				"/>
				<polygon class="st7" points="1657.6,622.5 1527,749.1 1552.9,625.5 				"/>
				<polygon class="st2" points="1637.6,946.5 1566.9,946.5 1569.9,883.7 				"/>
				<polygon class="st4" points="1553.9,156.9 1622.7,317.4 1474.2,241.6 				"/>
				<polygon class="st8" points="1622.7,317.4 1552.9,477.9 1468.2,382.2 				"/>
				<polygon class="st9" points="1622.7,317.4 1468.2,382.2 1489.1,313.5 				"/>
				<polygon class="st3" points="1622.7,317.4 1489.1,313.4 1349.5,309.4 1474.2,241.6 				"/>
				<polygon class="st5" points="1617.7,804.9 1569.9,883.7 1527,749.1 				"/>
				<polygon class="st2" points="1596.8,-127.2 1531,-88.4 1544.9,-127.2 				"/>
				<polygon class="st7" points="1592.8,107 1553.9,156.9 1531,49.2 				"/>
				<polygon class="st3" points="1552.9,477.9 1589.8,531.8 1528,596.6 				"/>
				<polygon class="st2" points="1527,749.1 1569.9,883.7 1502.7,936.6 1502.7,936.4 1502.7,936.4 1503.1,935.5 				"/>
				<polygon class="st2" points="1569.9,883.7 1566.9,946.5 1501.8,938.3 1502.5,936.7 1502.5,936.7 1502.7,936.6 1502.6,937.2 				
					"/>
				<polygon class="st2" points="1569.9,883.7 1502.6,937.2 1502.7,936.6 				"/>
				<polygon class="st5" points="1531,-88.4 1554.9,23.3 1479.1,-39.5 				"/>
				<polygon class="st6" points="1554.9,23.3 1531,49.2 1425.3,98.1 1479.1,-39.5 				"/>
				<polygon class="st1" points="1531,49.2 1553.9,156.9 1493.1,187.8 				"/>
				<polygon class="st4" points="1553.9,156.9 1474.2,241.6 1493.1,187.8 				"/>
				<polygon class="st10" points="1468.2,382.2 1552.9,477.9 1491.1,442 				"/>
				<polygon class="st4" points="1552.9,477.9 1528,596.6 1491.1,442 				"/>
				<polygon class="st1" points="1528,596.6 1552.9,625.5 1481.1,694.3 1421.3,541.7 				"/>
				<polygon class="st3" points="1552.9,625.5 1527,749.1 1481.1,694.3 				"/>
				<polygon class="st2" points="1544.9,-127.2 1531,-88.4 1525,-127.2 				"/>
				<polygon class="st2" points="1525,-127.2 1531,-88.4 1446.2,-127.2 				"/>
				<polygon class="st7" points="1531,49.2 1493.1,187.8 1425.3,98.1 				"/>
				<polygon class="st2" points="1531,-88.4 1479.1,-39.5 1410.4,-127.2 1446.2,-127.2 				"/>
				<polygon class="st3" points="1491.1,442 1528,596.6 1421.3,541.7 				"/>
				<polygon class="st6" points="1481.1,694.3 1527,749.1 1382.4,821.9 				"/>
				<polygon class="st2" points="1527,749.1 1503.1,935.5 1502.8,935.3 				"/>
				<polygon class="st5" points="1527,749.1 1502.8,935.3 1382.4,821.9 				"/>
				<polygon class="st2" points="1503.1,935.5 1502.7,936.4 1502.8,935.3 				"/>
				<polygon class="st2" points="1500.7,938.1 1501.8,938.3 1498.1,946.5 1440.3,945.5 1388.4,884.7 1382.4,821.9 1502.8,935.3 
					1502.7,936.4 1502.7,936.4 1502.5,936.7 1502.5,936.7 				"/>
				<polygon class="st2" points="1502.5,936.7 1501.8,938.3 1500.7,938.1 				"/>
				<polygon class="st4" points="1425.3,98.1 1493.1,187.8 1432.3,202.8 				"/>
				<polygon class="st4" points="1493.1,187.8 1474.2,241.6 1401.4,253.6 1432.3,202.8 				"/>
				<polygon class="st10" points="1468.2,382.2 1491.1,442 1427.3,427.1 1404.4,356.3 				"/>
				<polygon class="st8" points="1491.1,442 1421.3,541.7 1427.3,427.1 				"/>
				<polygon class="st8" points="1489.1,313.5 1468.2,382.2 1404.4,356.3 1349.5,309.4 				"/>
				<polygon class="st4" points="1421.3,541.7 1481.1,694.3 1368.5,661.4 1298.7,579.6 				"/>
				<polygon class="st7" points="1481.1,694.3 1382.4,821.9 1368.5,661.4 				"/>
				<polygon class="st5" points="1410.4,-127.2 1479.1,-39.5 1371.5,-8.6 1382.4,-127.2 				"/>
				<polygon class="st1" points="1479.1,-39.5 1425.3,98.1 1371.5,-8.6 				"/>
				<polygon class="st8" points="1474.2,241.6 1349.5,309.4 1401.4,253.6 				"/>
				<polygon class="st2" points="1388.4,884.7 1440.3,945.5 1377.5,945.5 				"/>
				<polygon class="st7" points="1425.3,98.1 1432.3,202.8 1261.8,183.8 				"/>
				<polygon class="st3" points="1432.3,202.8 1401.4,253.6 1349.5,309.4 1261.8,183.8 				"/>
				<polygon class="st9" points="1404.4,356.3 1427.3,427.1 1349.5,309.4 				"/>
				<polygon class="st9" points="1349.5,309.4 1427.3,427.1 1258.8,449 				"/>
				<polygon class="st3" points="1427.3,427.1 1421.3,541.7 1258.8,449 				"/>
				<polygon class="st7" points="1371.5,-8.6 1425.3,98.1 1306.7,64.2 				"/>
				<polygon class="st4" points="1425.3,98.1 1261.8,183.8 1306.7,64.2 				"/>
				<polygon class="st8" points="1421.3,541.7 1298.7,579.6 1258.8,449 				"/>
				<polygon class="st5" points="1382.4,821.9 1388.4,884.7 1329.6,804.9 				"/>
				<polygon class="st6" points="1329.6,804.9 1388.4,884.7 1238.9,946.5 				"/>
				<polygon class="st2" points="1388.4,884.7 1377.5,945.5 1238.9,946.5 				"/>
				<polygon class="st2" points="1382.4,-127.2 1371.5,-8.6 1332.6,-127.2 				"/>
				<polygon class="st1" points="1368.5,661.4 1382.4,821.9 1329.6,804.9 				"/>
				<polygon class="st6" points="1332.6,-127.2 1371.5,-8.6 1317.6,-10.6 				"/>
				<polygon class="st6" points="1371.5,-8.6 1306.7,64.2 1317.6,-10.6 				"/>
				<polygon class="st1" points="1298.7,579.6 1368.5,661.4 1313.7,661.4 				"/>
				<polygon class="st7" points="1368.5,661.4 1329.6,804.9 1313.7,661.4 				"/>
				<polygon class="st4" points="1261.8,183.8 1349.5,309.4 1171.1,243.6 				"/>
				<polygon class="st10" points="1349.5,309.4 1258.8,449 1170.1,382.2 				"/>
				<polygon class="st8" points="1349.5,309.4 1170.1,382.2 1142.2,312.4 1171.1,243.6 				"/>
				<polygon class="st5" points="1332.6,-127.2 1317.6,-10.6 1240.9,-98.3 1303.7,-127.2 				"/>
				<polygon class="st6" points="1313.7,661.4 1329.6,804.9 1236.9,758.1 				"/>
				<polygon class="st5" points="1329.6,804.9 1238.9,946.5 1198,883.7 				"/>
				<polygon class="st2" points="1329.6,804.9 1198,883.7 1236.9,758.1 				"/>
				<polygon class="st6" points="1240.9,-98.3 1317.6,-10.6 1217,5.4 				"/>
				<polygon class="st5" points="1317.6,-10.6 1306.7,64.2 1217,5.4 				"/>
				<polygon class="st3" points="1298.7,579.6 1313.7,661.4 1211,644.4 				"/>
				<polygon class="st7" points="1313.7,661.4 1236.9,758.1 1211,644.4 				"/>
				<polygon class="st1" points="1306.7,64.2 1261.8,183.8 1176.1,79.1 				"/>
				<polygon class="st6" points="1306.7,64.2 1176.1,79.1 1217,5.4 				"/>
				<polygon class="st2" points="1303.7,-127.2 1240.9,-98.3 1229.9,-127.2 				"/>
				<polygon class="st3" points="1258.8,449 1298.7,579.6 1171.1,563.7 				"/>
				<polygon class="st4" points="1298.7,579.6 1211,644.4 1171.1,563.7 				"/>
				<polygon class="st7" points="1176.1,79.1 1261.8,183.8 1171.1,243.6 				"/>
				<polygon class="st9" points="1258.8,449 1171.1,563.7 1170.1,382.2 				"/>
				<polygon class="st2" points="1229.9,-127.2 1240.9,-98.3 1137.2,-74.4 1163.1,-127.2 				"/>
				<polygon class="st2" points="1240.9,-98.3 1217,5.4 1120.3,-21.6 1137.2,-74.4 				"/>
				<polygon class="st2" points="1198,883.7 1238.9,946.5 1044.5,946.5 1091.4,927.5 1091.4,927.3 1091.6,927.2 				"/>
				<polygon class="st6" points="1211,644.4 1236.9,758.1 1133.2,734.1 1115.3,676.3 				"/>
				<polygon class="st1" points="1236.9,758.1 1198,883.7 1133.2,734.1 				"/>
				<polygon class="st5" points="1217,5.4 1176.1,79.1 1120.3,-21.6 				"/>
				<polygon class="st1" points="1171.1,563.7 1211,644.4 1115.3,676.3 				"/>
				<polygon class="st5" points="1133.2,734.1 1198,883.7 1091.6,927.2 				"/>
				<polygon class="st6" points="1120.3,-21.6 1176.1,79.1 1080.4,132 				"/>
				<polygon class="st1" points="1176.1,79.1 1171.1,243.6 1078.4,162.9 				"/>
				<polygon class="st1" points="1176.1,79.1 1078.4,162.9 1080.4,132 				"/>
				<polygon class="st11" points="1171.1,243.6 1142.2,312.4 1170.1,382.2 1075.4,471.9 1058.5,308.4 1078.4,162.9 				"/>
				<polygon class="st12" points="1170.1,382.2 1171.1,563.7 1075.4,471.9 				"/>
				<polygon class="st4" points="1171.1,563.7 1115.3,676.3 1077.4,504.8 				"/>
				<polygon class="st3" points="1171.1,563.7 1077.4,504.8 1075.4,471.9 				"/>
				<polygon class="st2" points="1163.1,-127.2 1137.2,-74.4 1125.3,-127.2 				"/>
				<polygon class="st2" points="1125.3,-127.2 1137.2,-74.4 1054.6,-75.4 1055.2,-75.7 1061.8,-76.3 1055.6,-79.5 1068.4,-127.2 
									"/>
				<polygon class="st5" points="1137.2,-74.4 1120.3,-21.6 1054.5,-75.4 1054.6,-75.4 				"/>
				<polygon class="st1" points="1115.3,676.3 1133.2,734.1 1049.9,734.1 1050.2,733.9 994.7,700.5 994.7,700.5 994.6,700.1 
					994.6,700.1 994.7,700.2 994.7,700.2 				"/>
				<polygon class="st2" points="1133.2,734.1 1091.4,927.3 1091.3,927.3 1091.3,927.3 1049.5,734.3 1049.9,734.1 				"/>
				<polygon class="st5" points="1120.3,-21.6 1080.4,132 1007.6,124 				"/>
				<polygon class="st6" points="1120.3,-21.6 1007.6,124 1003.6,-43.5 				"/>
				<polygon class="st6" points="1120.3,-21.6 1003.6,-43.5 1053.9,-75 1054.5,-75.4 				"/>
				<polygon class="st1" points="1077.4,504.8 1115.3,676.3 1004.6,514.8 				"/>
				<polygon class="st7" points="1004.6,514.8 1115.3,676.3 994.7,700.1 				"/>
				<polygon class="st6" points="1115.3,676.3 994.7,700.2 994.7,700.2 994.7,700.1 				"/>
				<polygon class="st13" points="1049.5,734.3 1091.3,927.3 1044.5,946.5 933.8,848.5 933.9,846.8 933.9,802.9 932.9,802.3 
					933,802.3 934.1,802.9 934.1,801.6 988.6,769.8 989.3,769.4 				"/>
				<polygon class="st6" points="1080.4,132 1078.4,162.9 1007.6,124 				"/>
				<polygon class="st7" points="1078.4,162.9 1058.5,308.4 998.7,196.8 				"/>
				<polygon class="st1" points="1078.4,162.9 998.7,196.8 1007.6,124 				"/>
				<polygon class="st3" points="1075.4,471.9 1077.4,504.8 1004.6,514.8 999.6,433.1 				"/>
				<polygon class="st12" points="1058.5,308.4 1075.4,471.9 999.6,433.1 				"/>
				<polygon class="st2" points="1068.4,-127.2 1055.6,-79.5 964.7,-126.3 				"/>
				<polygon class="st1" points="1061.8,-76.3 1055.2,-75.7 1054.6,-75.4 1054.5,-75.4 1055.6,-79.5 				"/>
				<polygon class="st14" points="998.7,196.8 1058.5,308.4 999.6,433.1 932.9,353.3 932.9,270.6 				"/>
				<polygon class="st1" points="1055.6,-79.5 1054.5,-75.4 955.8,-126.2 964.7,-126.3 				"/>
				<polygon class="st1" points="1054.6,-75.4 1054.5,-75.4 1054.5,-75.4 				"/>
				<polygon class="st1" points="1054.5,-75.4 1053.9,-75 1054.5,-75.4 				"/>
				<polygon class="st1" points="1054.5,-75.4 1053.9,-75 932.9,-10.1 932.2,-10.4 932.2,-126.7 910.2,-126.7 963.1,-127.1 
					964.7,-126.3 955.8,-126.2 				"/>
				<polygon class="st1" points="932.9,-10.1 1053.9,-75 1003.6,-43.5 932.9,-10.1 				"/>
				<polygon class="st6" points="1050.2,733.9 1049.9,734.1 1049.5,734.1 994.8,700.7 994.8,700.7 994.7,700.5 				"/>
				<polygon class="st6" points="1049.9,734.1 1049.5,734.3 1049.5,734.1 				"/>
				<polygon class="st6" points="1049.5,734.1 1049.5,734.3 989.3,769.4 				"/>
				<polygon class="st6" points="1049.5,734.1 989.3,769.4 988.6,769.8 934.1,801.4 933.2,663.3 995,701.2 994.8,700.7 				"/>
				<polygon class="st2" points="1044.5,946.5 946.9,947.4 946.9,947.2 988,946.5 932.9,900.7 932.9,897.2 932.9,897.1 933.8,848.5 
									"/>
				<polygon class="st5" points="1003.6,-43.5 1007.6,124 952.8,85.1 				"/>
				<polygon class="st1" points="1007.6,124 998.7,196.8 956.8,152.9 				"/>
				<polygon class="st6" points="1007.6,124 956.8,152.9 952.8,85.1 				"/>
				<polygon class="st4" points="999.6,433.1 1004.6,514.8 952.8,482.9 				"/>
				<polygon class="st4" points="1004.6,514.8 994.7,700.1 994.6,700.1 949.8,560.7 				"/>
				<polygon class="st3" points="1004.6,514.8 949.8,560.7 952.8,482.9 				"/>
				<polygon class="st2" points="1003.6,-43.5 952.8,85.1 932.9,49.2 933.9,-9.6 932.9,-10.1 				"/>
				<polygon class="st3" points="932.9,353.3 999.6,433.1 952.8,482.9 932.9,418.1 				"/>
				<polygon class="st3" points="956.8,152.9 998.7,196.8 932.9,270.6 932.9,209.7 				"/>
				<polygon class="st1" points="994.8,700.7 995,701.2 933.2,663.3 994.2,700.2 994,700.2 994.8,700.7 				"/>
				<polygon class="st1" points="994.7,700.5 994.8,700.7 994,700.2 994.2,700.2 994.7,700.5 				"/>
				<polygon class="st6" points="994.6,700.1 994.7,700.5 994.2,700.2 				"/>
				<polygon class="st1" points="994.7,700.1 994.7,700.2 994.6,700.1 				"/>
				<polygon class="st1" points="949.8,560.7 994.6,700.1 994.2,700.2 933.2,663.3 933.2,663.3 933.2,662.8 933.9,662.4 
					933.9,596.6 933.9,592.9 				"/>
				<polygon class="st2" points="988,946.5 946.9,947.2 932.9,900.9 932.9,900.9 932.9,900.7 				"/>
				<polygon class="st7" points="952.8,85.1 956.8,152.9 932.9,77.1 932.9,49.2 				"/>
				<polygon class="st5" points="932.9,77.1 956.8,152.9 932.9,209.7 				"/>
				<polygon class="st5" points="932.9,418.1 952.8,482.9 933.8,557.1 				"/>
				<polygon class="st7" points="952.8,482.9 949.8,560.7 933.9,592.6 933.9,564.7 933.8,558 				"/>
				<polygon class="st2" points="952.8,482.9 933.8,558 933.8,557.1 933.8,557.1 				"/>
				<polygon class="st7" points="949.8,560.7 933.9,592.9 933.9,592.6 933.9,592.6 				"/>
				<polygon class="st2" points="946.9,947.2 946.9,947.4 933.9,947.5 				"/>
				<polygon class="st2" points="932.9,900.9 946.9,947.2 933.9,947.5 				"/>
				<polygon class="st13" points="934.1,801.6 934.1,802.9 933,802.3 				"/>
				<polygon class="st15" points="934.1,801.4 934.1,801.6 933,802.3 932.8,802.2 				"/>
				<polygon class="st6" points="933.2,663.3 934.1,801.4 932.8,802.2 932.2,801.8 932.2,663.4 932.7,663.1 				"/>
				<polygon class="st7" points="933.9,592.6 933.9,592.6 933.1,594 931.9,564.7 932.9,560.8 933.9,564.7 				"/>
				<polygon class="st13" points="933.9,802.9 933.9,846.8 932.9,847.7 931.9,846.8 931.9,802.9 932.9,802.3 				"/>
				<polygon class="st1" points="933.9,596.6 933.9,662.4 933.2,662.8 933.1,661.8 932.2,662.4 931.9,596.6 932.9,594.6 				"/>
				<polygon class="st1" points="933.9,592.9 933.9,596.6 932.9,594.6 933.1,594 933.1,594.4 				"/>
				<polygon class="st7" points="933.9,592.6 933.9,592.9 933.1,594.4 933.1,594 933.1,594 				"/>
				<polygon class="st2" points="933.9,-9.6 932.9,49.2 931.9,-9.6 932.2,-9.8 932.2,-9.8 932.2,-9.7 932.7,-10 932.9,-10.1 				"/>
				<polygon class="st7" points="933.8,558 933.9,564.7 932.9,560.8 932.9,560.7 933.1,559.7 933.1,560.7 				"/>
				<polygon class="st13" points="933.9,846.8 933.8,848.5 932.9,847.7 				"/>
				<polygon class="st2" points="933.8,848.5 932.9,897.1 931.9,848.5 932.9,847.7 				"/>
				<polygon class="st2" points="933.8,557.1 933.8,558 933.1,560.7 933.1,559.7 933.1,559.7 				"/>
				<polygon class="st5" points="932.9,418.1 933.8,557.1 933.8,557.1 933.1,559.7 				"/>
				<polygon class="st1" points="933.2,663.3 933.2,663.3 932.7,663.1 				"/>
				<polygon class="st1" points="933.2,662.8 933.2,663.3 932.7,663.1 				"/>
				<polygon class="st1" points="933.1,661.8 933.2,662.8 932.7,663.1 932.2,662.8 932.2,662.4 				"/>
				<polygon class="st5" points="932.9,418.1 933.1,559.7 933.1,559.7 932.9,560.7 912.9,482.9 				"/>
				<polygon class="st7" points="931.9,564.7 933.1,594 933.1,594 932.9,594.6 915.9,560.7 912.9,482.9 932.9,560.7 932.9,560.8 
									"/>
				<polygon class="st2" points="932.9,897.1 932.9,897.2 932.8,900.7 877.7,946.5 894,947.1 821.2,946.5 931.9,848.5 				"/>
				<polygon class="st3" points="932.9,353.3 932.9,418.1 912.9,482.9 866.1,433.1 				"/>
				<polygon class="st14" points="932.9,270.6 932.9,353.3 866.1,433.1 807.2,308.4 867.1,196.8 				"/>
				<polygon class="st3" points="932.9,209.7 932.9,270.6 867.1,196.8 908.9,152.9 				"/>
				<polygon class="st5" points="932.9,77.1 932.9,209.7 908.9,152.9 				"/>
				<polygon class="st1" points="932.9,49.2 932.9,77.1 908.9,152.9 912.9,85.1 				"/>
				<polygon class="st2" points="931.9,-9.6 932.9,49.2 912.9,85.1 862.2,-43.2 932.2,-10.1 932.2,-9.8 				"/>
				<polygon class="st1" points="915.9,560.7 932.9,594.6 931.9,596.6 932.2,662.4 874.6,698.1 871.1,700.2 871.1,700.2 				"/>
				<polygon class="st6" points="932.7,802.2 932.9,802.3 931.9,802.9 931.9,846.8 931.9,848.5 821.2,946.5 774.4,927.3 
					816.2,734.1 932.2,802 932.2,802.5 				"/>
				<polygon class="st2" points="932.9,847.7 931.9,848.5 931.9,846.8 				"/>
				<polygon class="st2" points="932.9,-10.1 932.7,-10 932.9,-10.1 				"/>
				<polygon class="st2" points="932.9,-10.1 932.7,-10 932.2,-9.8 932.2,-9.8 932.2,-10.1 932.2,-10.1 932.2,-10.4 				"/>
				<polygon class="st6" points="932.2,801.8 932.8,802.2 932.7,802.2 932.2,802 				"/>
				<polygon class="st2" points="932.8,900.7 931.9,947.5 894,947.1 877.7,946.5 				"/>
				<polygon class="st6" points="932.2,662.8 932.7,663.1 932.2,663.4 				"/>
				<polygon class="st2" points="932.7,-10 932.2,-9.7 932.2,-9.8 				"/>
				<polygon class="st6" points="932.7,802.2 932.2,802.5 932.2,802 				"/>
				<polygon class="st1" points="932.2,-10.4 932.2,-10.1 932.2,-10.1 932.1,-10.4 				"/>
				<polygon class="st1" points="932.2,-126.7 932.2,-10.4 932.1,-10.4 910.2,-126.7 				"/>
				<polygon class="st15" points="932.2,663.4 932.2,801.8 816.4,734.1 874.6,698.1 				"/>
				<polygon class="st15" points="932.2,662.8 932.2,663.4 874.6,698.1 932.2,662.4 				"/>
				<polygon class="st1" points="932.2,-10.1 862.2,-43.2 862.1,-43.5 932.1,-10.4 				"/>
				<polygon class="st1" points="910.2,-126.7 932.1,-10.4 862.1,-43.5 811.2,-75.4 909.9,-126.2 907.4,-126.3 908.3,-126.7 				"/>
				<polygon class="st3" points="912.9,482.9 915.9,560.7 861.1,514.8 				"/>
				<polygon class="st4" points="915.9,560.7 871.1,700.2 871.1,700.2 861.1,514.8 				"/>
				<polygon class="st5" points="862.2,-43.2 912.9,85.1 858.1,124 862.1,-43.2 				"/>
				<polygon class="st6" points="912.9,85.1 908.9,152.9 858.1,124 				"/>
				<polygon class="st4" points="866.1,433.1 912.9,482.9 861.1,514.8 				"/>
				<polygon class="st1" points="909.9,-126.2 811.2,-75.4 810.9,-76.6 907.4,-126.3 				"/>
				<polygon class="st1" points="908.9,152.9 867.1,196.8 858.1,124 				"/>
				<polygon class="st2" points="907.4,-126.3 810.9,-76.6 797.3,-127.2 				"/>
				<polygon class="st1" points="871.1,700.2 816.2,734.1 732.5,734.1 750.4,676.3 871.1,700.2 871.1,700.2 				"/>
				<polygon class="st7" points="861.1,514.8 871.1,700.2 750.4,676.3 				"/>
				<polygon class="st1" points="858.1,124 867.1,196.8 787.3,162.9 				"/>
				<polygon class="st7" points="867.1,196.8 807.2,308.4 787.3,162.9 				"/>
				<polygon class="st12" points="807.2,308.4 866.1,433.1 790.3,471.9 				"/>
				<polygon class="st3" points="866.1,433.1 861.1,514.8 788.3,504.8 790.3,471.9 				"/>
				<polygon class="st1" points="862.1,-43.5 862.2,-43.2 862.1,-43.2 				"/>
				<polygon class="st1" points="862.1,-43.5 862.1,-43.2 861.7,-43.4 				"/>
				<polygon class="st1" points="862.1,-43.5 861.7,-43.4 860.4,-44 810.9,-75.1 811.2,-75.4 				"/>
				<polygon class="st6" points="862.1,-43.2 858.1,124 745.4,-21.6 861.7,-43.4 				"/>
				<polygon class="st6" points="860.4,-44 861.7,-43.4 745.4,-21.6 810.9,-75.1 				"/>
				<polygon class="st1" points="861.1,514.8 750.4,676.3 788.3,504.8 				"/>
				<polygon class="st5" points="745.4,-21.6 858.1,124 785.3,132 				"/>
				<polygon class="st6" points="858.1,124 787.3,162.9 785.3,132 				"/>
				<polygon class="st2" points="821.2,946.5 626.8,946.5 667.7,883.7 774.1,927.2 774.3,927.3 774.3,927.5 				"/>
				<polygon class="st2" points="816.2,734.1 774.4,927.3 774.3,927.3 732.5,734.1 				"/>
				<polygon class="st1" points="810.9,-76.6 811.2,-75.4 810.4,-75.4 809.6,-75.9 				"/>
				<polygon class="st1" points="811.2,-75.4 810.9,-75.1 810.4,-75.4 				"/>
				<polygon class="st2" points="797.3,-127.2 810.9,-76.6 809.6,-75.9 810.4,-75.4 728.5,-74.4 740.4,-127.2 				"/>
				<polygon class="st5" points="810.4,-75.4 810.9,-75.1 745.4,-21.6 728.5,-74.4 				"/>
				<polygon class="st11" points="787.3,162.9 807.2,308.4 790.3,471.9 695.6,382.2 723.5,312.4 694.6,243.6 				"/>
				<polygon class="st3" points="790.3,471.9 788.3,504.8 694.6,563.7 				"/>
				<polygon class="st12" points="790.3,471.9 694.6,563.7 695.6,382.2 				"/>
				<polygon class="st4" points="788.3,504.8 750.4,676.3 694.6,563.7 				"/>
				<polygon class="st1" points="785.3,132 787.3,162.9 689.6,79.1 				"/>
				<polygon class="st1" points="787.3,162.9 694.6,243.6 689.6,79.1 				"/>
				<polygon class="st6" points="745.4,-21.6 785.3,132 689.6,79.1 				"/>
				<polygon class="st5" points="732.5,734.1 774.1,927.2 667.7,883.7 				"/>
				<polygon class="st1" points="694.6,563.7 750.4,676.3 654.7,644.4 				"/>
				<polygon class="st6" points="750.4,676.3 732.5,734.1 628.8,758.1 654.7,644.4 				"/>
				<polygon class="st2" points="728.5,-74.4 745.4,-21.6 648.7,5.4 624.8,-98.3 				"/>
				<polygon class="st5" points="745.4,-21.6 689.6,79.1 648.7,5.4 				"/>
				<polygon class="st2" points="740.4,-127.2 728.5,-74.4 702.6,-127.2 				"/>
				<polygon class="st1" points="732.5,734.1 667.7,883.7 628.8,758.1 				"/>
				<polygon class="st2" points="702.6,-127.2 728.5,-74.4 624.8,-98.3 635.8,-127.2 				"/>
				<polygon class="st8" points="694.6,243.6 723.5,312.4 695.6,382.2 516.1,309.4 				"/>
				<polygon class="st9" points="695.6,382.2 694.6,563.7 606.9,449 				"/>
				<polygon class="st10" points="695.6,382.2 606.9,449 516.1,309.4 				"/>
				<polygon class="st7" points="689.6,79.1 694.6,243.6 603.9,183.8 				"/>
				<polygon class="st3" points="606.9,449 694.6,563.7 567,579.6 				"/>
				<polygon class="st4" points="694.6,563.7 654.7,644.4 567,579.6 				"/>
				<polygon class="st4" points="694.6,243.6 516.1,309.4 603.9,183.8 				"/>
				<polygon class="st6" points="648.7,5.4 689.6,79.1 559,64.2 				"/>
				<polygon class="st1" points="689.6,79.1 603.9,183.8 559,64.2 				"/>
				<polygon class="st2" points="628.8,758.1 667.7,883.7 536.1,804.9 				"/>
				<polygon class="st5" points="667.7,883.7 626.8,946.5 536.1,804.9 				"/>
				<polygon class="st7" points="654.7,644.4 628.8,758.1 552,661.4 				"/>
				<polygon class="st3" points="654.7,644.4 552,661.4 567,579.6 				"/>
				<polygon class="st6" points="624.8,-98.3 648.7,5.4 548,-10.6 				"/>
				<polygon class="st5" points="648.7,5.4 559,64.2 548,-10.6 				"/>
				<polygon class="st2" points="635.8,-127.2 624.8,-98.3 562,-127.2 				"/>
				<polygon class="st6" points="552,661.4 628.8,758.1 536.1,804.9 				"/>
				<polygon class="st6" points="536.1,804.9 626.8,946.5 477.3,884.7 				"/>
				<polygon class="st2" points="626.8,946.5 488.2,945.5 477.3,884.7 				"/>
				<polygon class="st5" points="624.8,-98.3 548,-10.6 533.1,-127.2 562,-127.2 				"/>
				<polygon class="st9" points="516.1,309.4 606.9,449 438.4,427.1 				"/>
				<polygon class="st8" points="606.9,449 567,579.6 444.4,541.7 				"/>
				<polygon class="st3" points="606.9,449 444.4,541.7 438.4,427.1 				"/>
				<polygon class="st4" points="559,64.2 603.9,183.8 440.4,98.1 				"/>
				<polygon class="st3" points="603.9,183.8 516.1,309.4 464.3,253.6 433.4,202.8 				"/>
				<polygon class="st7" points="603.9,183.8 433.4,202.8 440.4,98.1 				"/>
				<polygon class="st1" points="567,579.6 552,661.4 497.2,661.4 				"/>
				<polygon class="st4" points="567,579.6 497.2,661.4 384.5,694.3 444.4,541.7 				"/>
				<polygon class="st6" points="548,-10.6 559,64.2 494.2,-8.6 				"/>
				<polygon class="st7" points="494.2,-8.6 559,64.2 440.4,98.1 				"/>
				<polygon class="st7" points="552,661.4 536.1,804.9 497.2,661.4 				"/>
				<polygon class="st6" points="533.1,-127.2 548,-10.6 494.2,-8.6 				"/>
				<polygon class="st1" points="497.2,661.4 536.1,804.9 483.2,821.9 				"/>
				<polygon class="st5" points="536.1,804.9 477.3,884.7 483.2,821.9 				"/>
				<polygon class="st2" points="533.1,-127.2 494.2,-8.6 483.2,-127.2 				"/>
				<polygon class="st8" points="464.3,253.6 516.1,309.4 391.5,241.6 				"/>
				<polygon class="st9" points="516.1,309.4 438.4,427.1 461.3,356.3 				"/>
				<polygon class="st8" points="516.1,309.4 461.3,356.3 397.5,382.2 376.6,313.5 				"/>
				<polygon class="st3" points="516.1,309.4 376.6,313.4 243,317.4 391.5,241.6 				"/>
				<polygon class="st7" points="497.2,661.4 483.2,821.9 384.5,694.3 				"/>
				<polygon class="st5" points="483.2,-127.2 494.2,-8.6 386.5,-39.5 455.3,-127.2 				"/>
				<polygon class="st1" points="494.2,-8.6 440.4,98.1 386.5,-39.5 				"/>
				<polygon class="st2" points="477.3,884.7 488.2,945.5 425.4,945.5 				"/>
				<polygon class="st6" points="384.5,694.3 483.2,821.9 338.7,749.1 				"/>
				<polygon class="st2" points="483.2,821.9 477.3,884.7 425.4,945.5 367.6,946.5 364.4,939.4 367.4,939.1 362.7,935.4 				"/>
				<polygon class="st5" points="483.2,821.9 362.7,935.4 362.6,935.3 338.7,749.1 				"/>
				<polygon class="st4" points="433.4,202.8 464.3,253.6 391.5,241.6 372.6,187.8 				"/>
				<polygon class="st10" points="461.3,356.3 438.4,427.1 374.6,442 397.5,382.2 				"/>
				<polygon class="st2" points="455.3,-127.2 386.5,-39.5 334.7,-88.4 419.4,-127.2 				"/>
				<polygon class="st8" points="438.4,427.1 444.4,541.7 374.6,442 				"/>
				<polygon class="st3" points="374.6,442 444.4,541.7 337.7,596.6 				"/>
				<polygon class="st1" points="444.4,541.7 384.5,694.3 312.8,625.5 337.7,596.6 				"/>
				<polygon class="st6" points="386.5,-39.5 440.4,98.1 334.7,49.2 310.8,23.3 				"/>
				<polygon class="st4" points="440.4,98.1 433.4,202.8 372.6,187.8 				"/>
				<polygon class="st7" points="440.4,98.1 372.6,187.8 334.7,49.2 				"/>
				<polygon class="st2" points="419.4,-127.2 334.7,-88.4 340.7,-127.2 				"/>
				<polygon class="st9" points="376.6,313.5 397.5,382.2 243,317.4 				"/>
				<polygon class="st10" points="397.5,382.2 374.6,442 312.8,477.9 				"/>
				<polygon class="st8" points="397.5,382.2 312.8,477.9 243,317.4 				"/>
				<polygon class="st4" points="372.6,187.8 391.5,241.6 311.8,156.9 				"/>
				<polygon class="st4" points="311.8,156.9 391.5,241.6 243,317.4 				"/>
				<polygon class="st5" points="386.5,-39.5 310.8,23.3 334.7,-88.4 				"/>
				<polygon class="st3" points="384.5,694.3 338.7,749.1 312.8,625.5 				"/>
				<polygon class="st4" points="374.6,442 337.7,596.6 312.8,477.9 				"/>
				<polygon class="st1" points="334.7,49.2 372.6,187.8 311.8,156.9 				"/>
				<polygon class="st2" points="367.4,939.1 364.4,939.4 362.6,935.5 362.7,935.4 				"/>
				<polygon class="st2" points="364.4,939.4 298.8,946.5 295.8,883.7 362.6,935.5 				"/>
				<polygon class="st2" points="362.6,935.3 362.7,935.4 362.6,935.5 				"/>
				<polygon class="st2" points="362.6,935.3 362.6,935.5 295.8,883.7 				"/>
				<polygon class="st2" points="338.7,749.1 362.6,935.3 295.8,883.7 				"/>
				<polygon class="st2" points="340.7,-127.2 334.7,-88.4 320.7,-127.2 				"/>
				<polygon class="st7" points="312.8,625.5 338.7,749.1 208.1,622.5 				"/>
				<polygon class="st5" points="338.7,749.1 295.8,883.7 248,804.9 				"/>
				<polygon class="st1" points="338.7,749.1 248,804.9 208.1,622.5 				"/>
				<polygon class="st3" points="312.8,477.9 337.7,596.6 275.9,531.8 				"/>
				<polygon class="st4" points="275.9,531.8 337.7,596.6 312.8,625.5 208.1,622.5 				"/>
				<polygon class="st2" points="320.7,-127.2 334.7,-88.4 268.9,-127.2 				"/>
				<polygon class="st6" points="334.7,-88.4 310.8,23.3 208.1,26.3 				"/>
				<polygon class="st1" points="310.8,23.3 334.7,49.2 272.9,107 208.1,26.3 				"/>
				<polygon class="st7" points="334.7,49.2 311.8,156.9 272.9,107 				"/>
				<polygon class="st5" points="334.7,-88.4 208.1,26.3 241,-126.2 268.9,-127.2 				"/>
				<polygon class="st4" points="243,317.4 312.8,477.9 188.1,402.2 				"/>
				<polygon class="st8" points="312.8,477.9 275.9,531.8 168.2,558.7 188.1,402.2 				"/>
				<polygon class="st4" points="272.9,107 311.8,156.9 187.1,225.7 				"/>
				<polygon class="st3" points="311.8,156.9 243,317.4 187.1,225.7 				"/>
				<polygon class="st2" points="295.8,883.7 298.8,946.5 228,946.5 				"/>
				<polygon class="st2" points="248,804.9 295.8,883.7 148.3,892.7 				"/>
				<polygon class="st5" points="295.8,883.7 228,946.5 154.2,946.5 148.3,892.7 				"/>
				<polygon class="st3" points="275.9,531.8 208.1,622.5 168.2,558.7 				"/>
				<polygon class="st7" points="208.1,26.3 272.9,107 166.2,82.1 				"/>
				<polygon class="st1" points="272.9,107 187.1,225.7 166.2,82.1 				"/>
				<polygon class="st6" points="208.1,622.5 248,804.9 157.2,826.9 				"/>
				<polygon class="st5" points="248,804.9 148.3,892.7 157.2,826.9 				"/>
				<polygon class="st4" points="187.1,225.7 243,317.4 117.3,318.4 				"/>
				<polygon class="st8" points="243,317.4 188.1,402.2 152.2,341.3 				"/>
				<polygon class="st3" points="243,317.4 152.2,341.3 117.3,318.4 				"/>
				<polygon class="st2" points="241,-126.2 208.1,26.3 161.2,-126.2 				"/>
				<polygon class="st5" points="161.2,-126.2 208.1,26.3 84.4,-89.4 92,-96.7 122.4,-126 122.1,-126 122.3,-126.2 				"/>
				<polygon class="st5" points="208.1,26.3 166.2,82.1 82.5,0.4 				"/>
				<polygon class="st4" points="168.2,558.7 208.1,622.5 84.4,651.4 				"/>
				<polygon class="st1" points="208.1,622.5 157.2,826.9 84.4,749.1 				"/>
				<polygon class="st7" points="208.1,622.5 84.4,749.1 84.4,651.4 				"/>
				<polygon class="st2" points="208.1,26.3 82.5,0.4 84.4,-89.4 				"/>
				<polygon class="st3" points="152.2,341.3 188.1,402.2 81.5,410.1 117.3,318.4 				"/>
				<polygon class="st3" points="188.1,402.2 168.2,558.7 89.4,515.8 				"/>
				<polygon class="st8" points="188.1,402.2 89.4,515.8 81.5,410.1 				"/>
				<polygon class="st7" points="166.2,82.1 187.1,225.7 87.4,120 				"/>
				<polygon class="st3" points="87.4,120 187.1,225.7 75.6,215.7 75.7,215.7 75.5,215.6 				"/>
				<polygon class="st4" points="187.1,225.7 117.3,318.4 75.5,215.9 75.6,215.7 				"/>
				<polygon class="st3" points="168.2,558.7 84.4,651.4 89.4,515.8 				"/>
				<polygon class="st1" points="166.2,82.1 87.4,120 82.5,0.4 				"/>
				<polygon class="st6" points="84.4,749.1 157.2,826.9 16.7,812.9 				"/>
				<polygon class="st6" points="157.2,826.9 148.3,892.7 45.6,900.6 				"/>
				<polygon class="st2" points="157.2,826.9 45.6,900.6 16.7,812.9 				"/>
				<polygon class="st2" points="148.3,892.7 154.2,946.5 106.4,946.5 				"/>
				<polygon class="st2" points="148.3,892.7 106.4,946.5 42.6,944.5 46.2,900.7 45.6,900.6 45.6,900.6 				"/>
				<polygon class="st5" points="122.4,-126 92,-96.7 122.1,-126 				"/>
				<polygon class="st2" points="122.1,-126 92,-96.7 84.4,-89.4 72.9,-98.6 38.7,-126.5 				"/>
				<polygon class="st3" points="75.5,215.9 117.3,318.4 -1.4,309.7 				"/>
				<polygon class="st4" points="117.3,318.4 81.5,410.1 -5.3,309.4 -2.7,309.6 -2.7,311.3 -1.4,309.7 				"/>
				<polygon class="st3" points="81.5,410.1 89.4,515.8 2.7,507.8 				"/>
				<polygon class="st4" points="89.4,515.8 84.4,651.4 2.7,507.8 				"/>
				<polygon class="st6" points="82.5,0.4 87.4,120 1.7,129 				"/>
				<polygon class="st1" points="87.4,120 75.5,215.6 75.3,215.5 1.7,129 				"/>
				<polygon class="st7" points="84.4,651.4 84.4,749.1 29.6,692.3 				"/>
				<polygon class="st6" points="84.4,-89.4 82.5,0.4 26.6,-37.5 				"/>
				<polygon class="st1" points="2.7,507.8 84.4,651.4 29.6,692.3 				"/>
				<polygon class="st1" points="29.6,692.3 84.4,749.1 16.7,812.9 				"/>
				<polygon class="st2" points="84.4,-89.4 26.6,-37.5 18.7,-126.2 38.6,-126.2 72.9,-98.6 84.4,-89.3 84.4,-89.4 				"/>
				<polygon class="st2" points="84.4,-89.4 84.4,-89.4 84.4,-89.3 72.9,-98.6 				"/>
				<polygon class="st5" points="82.5,0.4 1.7,129 26.6,-37.5 				"/>
				<polygon class="st3" points="-5.3,309.4 81.5,410.1 -1.3,454 				"/>
				<polygon class="st8" points="81.5,410.1 2.7,507.8 -1.3,454 				"/>
				<polygon class="st1" points="75.7,215.7 75.6,215.7 75.5,215.7 75.5,215.6 				"/>
				<polygon class="st1" points="75.6,215.7 75.5,215.9 75.5,215.7 				"/>
				<polygon class="st1" points="75.5,215.7 75.5,215.9 -1.4,309.7 -2.7,309.6 -2.7,306.5 				"/>
				<polygon class="st1" points="75.5,215.6 75.5,215.7 75.3,215.5 				"/>
				<polygon class="st5" points="75.3,215.5 75.5,215.7 -3.4,179.5 				"/>
				<polygon class="st1" points="75.5,215.7 -2.7,306.5 -3.4,179.5 				"/>
				<polygon class="st5" points="75.3,215.5 -3.4,179.5 -4.3,135 1.7,129 				"/>
				<polygon class="st2" points="46.2,900.7 42.6,944.5 45.6,900.6 				"/>
				<polygon class="st2" points="16.7,812.9 45.6,900.6 45.2,900.6 -2.3,898.8 -2.3,843.8 				"/>
				<polygon class="st2" points="45.6,900.6 42.6,944.5 -2.8,947 -2.5,898.8 -2.3,898.8 -2.3,899.6 45.2,900.6 				"/>
				<polygon class="st2" points="45.2,900.6 -2.3,899.6 -2.3,898.8 				"/>
				<polygon class="st7" points="2.7,507.8 29.6,692.3 -2.3,560.7 				"/>
				<polygon class="st6" points="-2.3,560.7 29.6,692.3 -2.3,788 				"/>
				<polygon class="st2" points="29.6,692.3 16.7,812.9 -2.3,843.8 -2.3,788 				"/>
				<polygon class="st2" points="18.7,-126.2 26.6,-37.5 -4.3,-122.3 				"/>
				<polygon class="st2" points="-4.3,-122.3 26.6,-37.5 -5.3,87.1 				"/>
				<polygon class="st2" points="26.6,-37.5 1.7,129 -4.3,135 -5.3,87.1 				"/>
				<polygon class="st1" points="-1.4,309.7 -2.7,311.3 -2.7,309.6 				"/>
				<polygon class="st3" points="-2.7,306.5 -2.7,309.6 -5.3,309.4 				"/>
			</g>
			<g>
			</g>
		</g>
	</g>
	<g class="st0">
		<g>
			<path class="st2" d="M925.6,913.4c4.5,0,8.3,1.8,11,5.4c0.8-0.6,1.6-1.2,2.4-1.8c-1.9-1.9-3.8-3.7-5.7-5.6
				c-0.8-0.8-1.7-1.7-2.5-2.5c-0.4-0.4-0.8-0.8-1.3-1.2c-1.2-1-0.7-1,1.5,0.2c0.2,1.5,2.6,2.2,2.9,0.4c0.4-2.3,0.7-4.6,1.1-6.8
				c-1,0-1.9,0-2.9,0c0.6,3.1,0.8,6.1,0.6,9.2c-0.1,1.7,2.6,2.1,2.9,0.4c0.7-3.6,1.4-7.2,2.1-10.9c-1-0.1-2-0.3-2.9-0.4
				c-0.2,3.6-0.5,7.3-0.7,10.9c1,0,2,0,3,0c-0.1-2.4-0.2-4.9-0.2-7.3c-0.1-1.6-2.7-2.1-2.9-0.4c-1.1,7.4-2.1,14.8-3.2,22.2
				c1,0.1,2,0.3,2.9,0.4c0-4.7,0-9.3,0-14c-1,0-2,0-3,0c0,7.4,0,14.8,0,22.2c1,0,2,0,3,0c0-3.6,0-7.2,0-10.8c0-1.6-2.7-2.1-2.9-0.4
				c-0.8,4.9-1.2,9.7-1.3,14.6c0,1.4,2.1,2.1,2.8,0.8c0.7-1.4,1.4-2.7,2-4.1c-0.9-0.1-1.8-0.2-2.7-0.4c0.6,3.1,0.7,5.9,0.5,9
				c1,0,2,0,3,0c0-2.8,0-5.5,0-8.3c-1,0-2,0-3,0c0.3,4.6-0.1,8.9-1.2,13.4c1,0.1,2,0.3,2.9,0.4c-0.2-4.8,0.5-9.3,2.1-13.9
				c-1-0.1-2-0.3-2.9-0.4c0.5,5.1,0.6,10.2,0.4,15.3c-0.1,1.9,2.9,1.9,3,0c0.3-3.8,0.1-7.5-0.6-11.2c-0.3-1.6-2.4-1.2-2.9,0
				c-1,2.4-1.9,4.7-2.9,7.1c1,0,1.9,0,2.9,0c-0.2-1-0.3-1.9-0.5-2.9c-1,0-2,0-3,0c0,1.6,0,3.2,0,4.9c0,1.9,3,1.9,3,0
				c0-1.6,0-3.2,0-4.9c0-1.9-3-1.9-3,0c0,2-0.1,1.7,0.6,3.7c0.5,1.5,2.3,1.3,2.9,0c1-2.4,1.9-4.7,2.9-7.1c-1,0-1.9,0-2.9,0
				c0.6,3.5,0.7,6.9,0.5,10.4c1,0,2,0,3,0c0.3-5.1,0.1-10.2-0.4-15.3c-0.2-1.7-2.4-2.1-2.9-0.4c-1.7,4.8-2.4,9.6-2.3,14.7
				c0.1,1.7,2.5,2.1,2.9,0.4c1.2-4.7,1.7-9.4,1.4-14.2c-0.1-1.9-3-1.9-3,0c0,2.8,0,5.5,0,8.3c0,1.9,2.9,1.9,3,0
				c0.2-3.3,0-6.5-0.6-9.8c-0.2-1.2-2.2-1.5-2.7-0.4c-0.7,1.4-1.4,2.7-2,4.1c0.9,0.3,1.9,0.5,2.8,0.8c0.1-4.7,0.5-9.2,1.2-13.8
				c-1-0.1-2-0.3-2.9-0.4c0,3.6,0,7.2,0,10.8c0,1.9,3,1.9,3,0c0-7.4,0-14.8,0-22.2c0-1.9-3-1.9-3,0c0,4.7,0,9.3,0,14
				c0,1.6,2.7,2.1,2.9,0.4c1.1-7.4,2.1-14.8,3.2-22.2c-1-0.1-2-0.3-2.9-0.4c0.1,2.4,0.2,4.9,0.2,7.3c0.1,1.9,2.9,1.9,3,0
				c0.2-3.6,0.5-7.3,0.7-10.9c0.1-1.7-2.6-2.1-2.9-0.4c-0.7,3.6-1.4,7.2-2.1,10.9c1,0.1,2,0.3,2.9,0.4c0.2-3.4,0-6.6-0.7-10
				c-0.3-1.4-2.7-1.5-2.9,0c-0.4,2.3-0.7,4.6-1.1,6.8c1,0.1,2,0.3,2.9,0.4c-0.5-3.6-4.9-10-8.7-5c-1.3,1.7-0.6,3.8,0.6,5.3
				c3,4,7.5,7.5,11.1,11c1.2,1.1,3.4-0.4,2.4-1.8c-3.4-4.4-8-6.8-13.6-6.8C923.7,910.4,923.7,913.4,925.6,913.4L925.6,913.4z"/>
		</g>
	</g>
	<polygon class="st16" points="932.7,417.9 913,482.5 932.7,561.1 952.3,482.5 	"/>
</g>
<g id="Layer_2">
</g>
</svg>
